<svg width="17" height="13" viewBox="0 0 17 13" fill="none" xmlns="http://www.w3.org/2000/svg">
<path d="M0.606249 4.16082C0.283207 4.16082 0.0214844 4.42275 0.0214844 4.74559V8.40036C0.0214844 8.72361 0.283207 8.98533 0.606249 8.98533C0.92929 8.98533 1.19101 8.72361 1.19101 8.40036V4.74559C1.19101 4.42275 0.92929 4.16082 0.606249 4.16082ZM2.36054 3.28368C2.0375 3.28368 1.77578 3.5454 1.77578 3.86844V9.27751C1.77578 9.60055 2.0375 9.86227 2.36054 9.86227C2.68358 9.86227 2.94531 9.60055 2.94531 9.27751V3.86844C2.94531 3.5456 2.68358 3.28368 2.36054 3.28368ZM4.11483 0.652237C3.79179 0.652237 3.52987 0.914162 3.52987 1.2372V11.763C3.52987 12.086 3.79179 12.3477 4.11483 12.3477C4.43767 12.3477 4.6996 12.086 4.6996 11.763V1.237C4.6996 0.914162 4.43767 0.652237 4.11483 0.652237ZM5.86913 2.8451C5.54608 2.8451 5.28436 3.10683 5.28436 3.42987V9.56969C5.28436 9.89273 5.54608 10.1547 5.86913 10.1547C6.19217 10.1547 6.45389 9.89273 6.45389 9.56969V3.42987C6.45389 3.10683 6.19217 2.8451 5.86913 2.8451ZM7.62342 4.59939C7.30038 4.59939 7.03865 4.86112 7.03865 5.18416V7.8156C7.03865 8.13864 7.30038 8.40036 7.62342 8.40036C7.94646 8.40036 8.20818 8.13864 8.20818 7.8156V5.18416C8.20818 4.86112 7.94646 4.59939 7.62342 4.59939ZM9.37751 5.17604C9.05467 5.17604 8.79295 5.43796 8.79295 5.7608V7.38515C8.79295 7.70839 9.05467 7.97011 9.37751 7.97011C9.70055 7.97011 9.96247 7.70839 9.96247 7.38515V5.7608C9.96247 5.43796 9.70055 5.17604 9.37751 5.17604ZM11.132 4.29889C10.809 4.29889 10.5472 4.56061 10.5472 4.88366V8.26229C10.5472 8.58533 10.809 8.84706 11.132 8.84706C11.455 8.84706 11.7168 8.58533 11.7168 8.26229V4.88366C11.7168 4.56082 11.455 4.29889 11.132 4.29889ZM12.8865 2.68267C12.5635 2.68267 12.3015 2.94459 12.3015 3.26764V9.73253C12.3015 10.0556 12.5635 10.3173 12.8865 10.3173C13.2093 10.3173 13.4711 10.0556 13.4711 9.73253V3.26743C13.4711 2.94459 13.2091 2.68267 12.8865 2.68267ZM14.6404 4.06336C14.3175 4.06336 14.0558 4.32508 14.0558 4.64813V8.55447C14.0558 8.87751 14.3175 9.13944 14.6404 9.13944C14.9636 9.13944 15.2254 8.87751 15.2254 8.55447V4.64813C15.2254 4.32508 14.9636 4.06336 14.6404 4.06336ZM16.3949 4.59939C16.0718 4.59939 15.8101 4.86112 15.8101 5.18416V7.8156C15.8101 8.13864 16.0718 8.40036 16.3949 8.40036C16.7181 8.40036 16.9796 8.13864 16.9796 7.8156V5.18416C16.9796 4.86112 16.7181 4.59939 16.3949 4.59939Z" fill="white"/>
</svg>
