<svg width="141" height="141" viewBox="0 0 141 141" fill="none" xmlns="http://www.w3.org/2000/svg">
<g filter="url(#filter0_dd)">
<circle cx="73.5" cy="73.5" r="52.5" fill="url(#paint0_linear)"/>
<circle cx="73.5" cy="73.5" r="51.8092" stroke="url(#paint1_linear)" stroke-width="1.38158"/>
</g>
<g filter="url(#filter1_ii)">
<path fill-rule="evenodd" clip-rule="evenodd" d="M70.0459 94.005C70.0459 96.0333 71.6902 97.6775 73.7185 97.6775C75.7468 97.6775 77.391 96.0333 77.391 94.005V79.3911C77.391 78.2865 78.2865 77.3911 79.391 77.3911H94.005C96.0333 77.3911 97.6775 75.7468 97.6775 73.7185C97.6775 71.6902 96.0333 70.046 94.005 70.046H79.391C78.2865 70.046 77.391 69.1505 77.391 68.046V52.9948C77.391 50.9665 75.7468 49.3223 73.7185 49.3223C71.6902 49.3223 70.0459 50.9665 70.0459 52.9948V68.046C70.0459 69.1505 69.1505 70.046 68.0459 70.046H52.9948C50.9665 70.046 49.3223 71.6902 49.3223 73.7185C49.3223 75.7468 50.9665 77.3911 52.9948 77.3911H68.0459C69.1505 77.3911 70.0459 78.2865 70.0459 79.3911V94.005Z" fill="url(#paint2_linear)"/>
</g>
<defs>
<filter id="filter0_dd" x="0.276318" y="0.276318" width="140.23" height="140.23" filterUnits="userSpaceOnUse" color-interpolation-filters="sRGB">
<feFlood flood-opacity="0" result="BackgroundImageFix"/>
<feColorMatrix in="SourceAlpha" type="matrix" values="0 0 0 0 0 0 0 0 0 0 0 0 0 0 0 0 0 0 127 0"/>
<feOffset dx="4.83553" dy="4.83553"/>
<feGaussianBlur stdDeviation="4.83553"/>
<feColorMatrix type="matrix" values="0 0 0 0 0.565521 0 0 0 0 0.64663 0 0 0 0 0.7625 0 0 0 0.65 0"/>
<feBlend mode="normal" in2="BackgroundImageFix" result="effect1_dropShadow"/>
<feColorMatrix in="SourceAlpha" type="matrix" values="0 0 0 0 0 0 0 0 0 0 0 0 0 0 0 0 0 0 127 0"/>
<feOffset dx="-6.90789" dy="-6.90789"/>
<feGaussianBlur stdDeviation="6.90789"/>
<feColorMatrix type="matrix" values="0 0 0 0 1 0 0 0 0 1 0 0 0 0 1 0 0 0 0.8 0"/>
<feBlend mode="normal" in2="effect1_dropShadow" result="effect2_dropShadow"/>
<feBlend mode="normal" in="SourceGraphic" in2="effect2_dropShadow" result="shape"/>
</filter>
<filter id="filter1_ii" x="47.3223" y="48.3223" width="51.3553" height="51.3553" filterUnits="userSpaceOnUse" color-interpolation-filters="sRGB">
<feFlood flood-opacity="0" result="BackgroundImageFix"/>
<feBlend mode="normal" in="SourceGraphic" in2="BackgroundImageFix" result="shape"/>
<feColorMatrix in="SourceAlpha" type="matrix" values="0 0 0 0 0 0 0 0 0 0 0 0 0 0 0 0 0 0 127 0" result="hardAlpha"/>
<feOffset dx="1" dy="2"/>
<feGaussianBlur stdDeviation="2"/>
<feComposite in2="hardAlpha" operator="arithmetic" k2="-1" k3="1"/>
<feColorMatrix type="matrix" values="0 0 0 0 0.564706 0 0 0 0 0.647059 0 0 0 0 0.760784 0 0 0 0.55 0"/>
<feBlend mode="normal" in2="shape" result="effect1_innerShadow"/>
<feColorMatrix in="SourceAlpha" type="matrix" values="0 0 0 0 0 0 0 0 0 0 0 0 0 0 0 0 0 0 127 0" result="hardAlpha"/>
<feOffset dx="-2" dy="-1"/>
<feGaussianBlur stdDeviation="2"/>
<feComposite in2="hardAlpha" operator="arithmetic" k2="-1" k3="1"/>
<feColorMatrix type="matrix" values="0 0 0 0 1 0 0 0 0 1 0 0 0 0 1 0 0 0 0.85 0"/>
<feBlend mode="normal" in2="effect1_innerShadow" result="effect2_innerShadow"/>
</filter>
<linearGradient id="paint0_linear" x1="25" y1="27.5" x2="120.75" y2="120.5" gradientUnits="userSpaceOnUse">
<stop offset="0.0260417" stop-color="#F5F5F5"/>
<stop offset="1" stop-color="#EDEDED"/>
</linearGradient>
<linearGradient id="paint1_linear" x1="45" y1="53.5" x2="121.75" y2="123" gradientUnits="userSpaceOnUse">
<stop stop-color="#FEFEFF"/>
<stop offset="1" stop-color="#C6CEDA"/>
</linearGradient>
<linearGradient id="paint2_linear" x1="51.1644" y1="52.3157" x2="95.2598" y2="95.1446" gradientUnits="userSpaceOnUse">
<stop offset="0.0260417" stop-color="#F5F5F5"/>
<stop offset="1" stop-color="#EDEDED"/>
</linearGradient>
</defs>
</svg>
