<svg width="16" height="18" viewBox="0 0 16 18" fill="none" xmlns="http://www.w3.org/2000/svg">
<path d="M13.0703 16.0547L13.6094 4.69531H14.5469C14.8672 4.69531 15.125 4.42188 15.125 4.10156C15.125 3.78125 14.8672 3.51562 14.5469 3.51562H10.9766V2.34375C10.9766 1.21875 10.2188 0.5 9.01562 0.5H6.09375C4.89062 0.5 4.14062 1.21875 4.14062 2.34375V3.51562H0.578125C0.265625 3.51562 0 3.78906 0 4.10156C0 4.42188 0.265625 4.69531 0.578125 4.69531H1.52344L2.0625 16.0625C2.11719 17.1797 2.85156 17.8984 3.98438 17.8984H11.1484C12.2656 17.8984 13.0156 17.1719 13.0703 16.0547ZM5.39062 2.42188C5.39062 1.97656 5.71094 1.66406 6.1875 1.66406H8.92969C9.40625 1.66406 9.73438 1.97656 9.73438 2.42188V3.51562H5.39062V2.42188ZM4.09375 16.7188C3.64844 16.7188 3.3125 16.3828 3.28906 15.9219L2.74219 4.69531H12.3594L11.8438 15.9219C11.8203 16.3906 11.4922 16.7188 11.0234 16.7188H4.09375ZM9.88281 15.3516C10.1406 15.3516 10.3281 15.1406 10.3359 14.8438L10.5703 6.64844C10.5781 6.35938 10.3828 6.14062 10.1172 6.14062C9.875 6.14062 9.67188 6.36719 9.66406 6.64844L9.42969 14.8359C9.42188 15.125 9.61719 15.3516 9.88281 15.3516ZM5.25 15.3516C5.51562 15.3516 5.71094 15.125 5.70312 14.8359L5.46094 6.64844C5.45312 6.36719 5.25 6.14062 5.00781 6.14062C4.74219 6.14062 4.54688 6.35938 4.55469 6.64844L4.78906 14.8438C4.79688 15.1406 4.98438 15.3516 5.25 15.3516ZM7.5625 15.3516C7.82031 15.3516 8.03906 15.125 8.03906 14.8438V6.64844C8.03906 6.36719 7.82031 6.14062 7.5625 6.14062C7.3125 6.14062 7.09375 6.36719 7.09375 6.64844V14.8438C7.09375 15.125 7.3125 15.3516 7.5625 15.3516Z" fill="#EB612F"/>
</svg>
