<svg width="164" height="34" viewBox="0 0 164 34" fill="none" xmlns="http://www.w3.org/2000/svg">
<path fill-rule="evenodd" clip-rule="evenodd" d="M155.417 7.9672C155.417 5.7792 157.094 4 159.156 4C161.218 4 162.895 5.7792 162.895 7.9672C162.895 10.1552 161.218 11.9344 159.156 11.9344C157.094 11.9344 155.417 10.1552 155.417 7.9672ZM155.945 7.9672C155.945 9.84764 157.388 11.3738 159.156 11.3738C160.925 11.3738 162.368 9.84764 162.368 7.9672C162.368 6.08677 160.929 4.56063 159.156 4.56063C157.384 4.56063 155.945 6.09067 155.945 7.9672ZM9.08807 10.2671C11.7339 10.2671 13.8183 10.9874 15.2862 12.4123C16.4862 13.5764 17.1761 15.1843 17.1761 16.8156V23.7611C17.1761 26.9145 14.644 30.3096 9.08807 30.3096C8.98532 30.3096 8.88256 30.3094 8.77982 30.3056C6.09725 30.22 5.45505 29.0208 5.30459 28.4952H5.25688V29.7216V29.9435H1V4.55966H5.25688V10.2516V10.855V11.6998H5.30825C5.4587 11.1821 6.08257 10.3567 8.66238 10.2749C8.7945 10.271 8.93027 10.2671 9.06972 10.2671H9.08807ZM9.08807 26.7005C10.9413 26.7005 12.9193 26.0386 12.9193 24.1855V16.3951C12.9193 14.5419 10.9413 13.8801 9.08807 13.8801C5.25688 13.8801 5.25688 15.706 5.25688 16.3951V24.1855C5.25688 24.8745 5.25688 26.7005 9.08807 26.7005ZM146.902 10.2671C149.548 10.2671 151.633 10.9874 153.101 12.4123C154.301 13.5764 154.991 15.1843 154.994 16.8156V23.7611C154.994 26.9145 152.462 30.3096 146.906 30.3096C146.803 30.3096 146.701 30.3094 146.598 30.3056C143.915 30.22 143.273 29.0208 143.123 28.4952H143.075V29.7216V29.9435H138.818V4.55966H143.075V10.2516V10.855V11.6998H143.123C143.27 11.1821 143.897 10.3567 146.477 10.2749C146.609 10.271 146.745 10.2671 146.884 10.2671H146.902ZM146.899 26.6888C148.752 26.6888 150.73 26.0269 150.73 24.1777V16.4029C150.73 14.5497 148.752 13.8917 146.899 13.8917C143.068 13.8917 143.068 15.7177 143.068 16.4029V24.1777C143.068 24.8668 143.068 26.6888 146.899 26.6888ZM130.881 24.4439C130.881 25.0589 130.881 26.6903 127.05 26.6903C125.197 26.6903 123.219 26.1025 123.219 24.4439V10.4983H118.962V23.6302C118.962 25.2615 119.652 26.8694 120.852 28.0334C122.32 29.4584 124.404 30.1786 127.05 30.1786C127.799 30.1786 128.496 30.1241 129.149 30.0229C130.356 29.6141 130.723 28.8822 130.834 28.5005H130.881V29.5908V29.9489H135.138V10.4983H130.881V24.4439ZM85.7213 11.6998V10.855H85.7249V4.55966H89.9817V29.9475H85.7249V29.7255V28.4992H85.6773C85.523 29.0247 84.8845 30.2238 82.202 30.3094C82.173 30.3094 82.1443 30.3097 82.1156 30.3102L82.0507 30.3114H82.0506H82.0505H82.0503H82.0502H82.0501C81.9989 30.3124 81.9473 30.3134 81.8938 30.3134C79.2478 30.3134 77.1635 29.5932 75.6955 28.1682C74.4956 27.0041 73.8057 25.4001 73.8057 23.7649V16.8156C73.8057 13.662 76.3378 10.2671 81.8938 10.2671H81.912C82.0477 10.2671 82.1833 10.271 82.319 10.2749L82.3195 10.2749C84.8993 10.3567 85.523 11.1821 85.6735 11.6998H85.7213ZM81.89 26.6888C85.7213 26.6888 85.7213 24.8628 85.7213 24.1777V16.4029C85.7213 15.7138 85.7213 13.8917 81.89 13.8917C80.0369 13.8917 78.0588 14.5536 78.0588 16.4029V24.1777C78.0588 26.0308 80.0369 26.6888 81.89 26.6888ZM28.7284 10.2686H28.71C28.5706 10.2686 28.4348 10.2725 28.3027 10.2764C25.7229 10.3582 25.0991 11.1836 24.9485 11.7014H24.9009V10.8565V10.4984H20.644V29.9489H24.9009V16.128C24.9009 15.5128 24.9009 13.8816 28.732 13.8816H31.7376V10.2686H28.7284ZM62.1345 10.2686C64.7805 10.2686 66.8648 10.9889 68.3328 12.4138C69.5327 13.5779 70.2226 15.1858 70.2263 16.8171V29.9489H65.9694V16.128C65.9694 14.4694 63.9914 13.8816 62.1383 13.8816C58.307 13.8816 58.307 15.5128 58.307 16.128V29.9489H54.0502V10.4984H58.307V10.8565V11.7014H58.3548C58.5052 11.1836 59.129 10.3582 61.7088 10.2764C61.8411 10.2725 61.9768 10.2686 62.1163 10.2686H62.1345ZM113.555 12.4123C112.087 10.9874 110.002 10.2671 107.356 10.2671H107.338C107.202 10.2671 107.073 10.2708 106.941 10.2746L106.931 10.2749C104.351 10.3567 103.723 11.1821 103.577 11.6998H103.529V10.855V4.55966H99.272V29.9435H103.529V16.1225C103.529 15.5074 103.529 13.8762 107.36 13.8762C109.213 13.8762 111.191 14.464 111.191 16.1225V29.9435H115.448V16.8156C115.444 15.1843 114.755 13.5764 113.555 12.4123ZM34.4582 16.3966C34.4582 13.8816 35.5591 10.2686 42.0435 10.2686C48.1756 10.2686 50.1315 13.6908 50.1279 16.455V29.9411H45.871V29.7191V28.4929H45.8234C45.6729 29.0223 44.3187 30.1748 42.0399 30.311C39.4381 30.4667 37.3096 30.1124 35.8416 28.6876C34.6417 27.5235 33.9518 26.0246 33.9518 24.2843C33.9518 22.5439 34.8509 20.6558 36.1867 19.6513C37.7133 18.5028 39.3757 18.1096 42.0435 18.1096L45.8747 18.1252V16.3927V16.1241C45.8747 14.6953 44.3994 14.0606 42.8068 13.9127C42.805 13.9127 42.7909 13.9118 42.7673 13.9102C42.6473 13.9021 42.2826 13.8777 42.0435 13.8777C38.2124 13.8777 38.2124 15.5089 38.2124 16.1241V16.3966H34.4582ZM45.871 24.2453V24.218V21.38L42.0399 21.3644C38.3041 21.3644 38.2124 23.3577 38.2086 24.1869C38.2124 25.5807 39.2178 27.068 42.0399 27.068C45.7756 27.068 45.8674 25.0745 45.871 24.2453ZM160.454 7.35959C160.454 6.6627 160.055 6.21887 159.383 6.21887H158.036V9.71889H158.675V8.45748H159.027L159.838 9.71889H160.626L159.749 8.40297C160.191 8.2784 160.454 7.92799 160.454 7.35959ZM159.309 7.83456H158.675V6.90019H159.309C159.64 6.90019 159.801 7.07927 159.801 7.37127C159.804 7.65158 159.648 7.83456 159.309 7.83456Z" fill="#1859FF"/>
</svg>
