<svg width="28" height="20" viewBox="0 0 28 20" fill="none" xmlns="http://www.w3.org/2000/svg">
<path fill-rule="evenodd" clip-rule="evenodd" d="M1 1.75598C1 1.33846 1.34822 1 1.77778 1H26.2222C26.6518 1 27 1.33847 27 1.75598V18.3156C27 18.7332 26.6518 19.0716 26.2222 19.0716H1.77778C1.34822 19.0716 1 18.7332 1 18.3156V1.75598ZM1.81481 1.79198V18.2796H26.1852V1.79198H1.81481Z" fill="#1859FF" stroke="#1859FF" stroke-width="0.791984"/>
<path fill-rule="evenodd" clip-rule="evenodd" d="M26.5934 5.87206H1.4082V5.08008H26.5934V5.87206Z" fill="#1859FF" stroke="#1859FF" stroke-width="0.791984"/>
<path d="M4.4382 3.44264C4.4382 3.73608 4.19201 3.98263 3.87746 3.98263C3.56291 3.98263 3.31672 3.73608 3.31672 3.44264C3.31672 3.1492 3.56291 2.90265 3.87746 2.90265C4.19201 2.90265 4.4382 3.1492 4.4382 3.44264Z" fill="#1859FF" stroke="#1859FF" stroke-width="0.359993"/>
<path d="M6.66086 3.44264C6.66086 3.73608 6.41466 3.98263 6.10012 3.98263C5.78557 3.98263 5.53937 3.73608 5.53937 3.44264C5.53937 3.1492 5.78557 2.90265 6.10012 2.90265C6.41466 2.90265 6.66086 3.1492 6.66086 3.44264Z" fill="#1859FF" stroke="#1859FF" stroke-width="0.359993"/>
<path d="M8.88352 3.44264C8.88352 3.73608 8.63732 3.98263 8.32277 3.98263C8.00822 3.98263 7.76203 3.73608 7.76203 3.44264C7.76203 3.1492 8.00822 2.90265 8.32277 2.90265C8.63732 2.90265 8.88352 3.1492 8.88352 3.44264Z" fill="#1859FF" stroke="#1859FF" stroke-width="0.359993"/>
</svg>
