<svg width="120" height="106" viewBox="0 0 120 106" fill="none" xmlns="http://www.w3.org/2000/svg">
<g filter="url(#filter0_dd)">
<mask id="mask0" mask-type="alpha" maskUnits="userSpaceOnUse" x="15" y="15" width="94" height="80">
<path d="M15.1429 29.2923C15.1429 21.4778 21.4778 15.1429 29.2923 15.1429H94.7077C102.522 15.1429 108.857 21.4778 108.857 29.2923V54.9742V74.9613V83.1278C108.857 84.1349 108.17 85.012 107.192 85.2525C105.629 85.6368 104.843 87.3875 105.595 88.8104L106.236 90.0235C107.383 92.1942 105.809 94.8056 103.354 94.8056H20.5521C18.0444 94.8056 16.3669 92.2244 17.3853 89.9328L18.0564 88.4227C18.6232 87.1472 17.9359 85.6645 16.5962 85.2728C15.7348 85.0209 15.1429 84.2311 15.1429 83.3336V74.9613V54.9742V29.2923Z" fill="#C4C4C4"/>
<path d="M15.1429 29.2923C15.1429 21.4778 21.4778 15.1429 29.2923 15.1429H94.7077C102.522 15.1429 108.857 21.4778 108.857 29.2923V54.9742V74.9613V83.1278C108.857 84.1349 108.17 85.012 107.192 85.2525C105.629 85.6368 104.843 87.3875 105.595 88.8104L106.236 90.0235C107.383 92.1942 105.809 94.8056 103.354 94.8056H20.5521C18.0444 94.8056 16.3669 92.2244 17.3853 89.9328L18.0564 88.4227C18.6232 87.1472 17.9359 85.6645 16.5962 85.2728C15.7348 85.0209 15.1429 84.2311 15.1429 83.3336V74.9613V54.9742V29.2923Z" fill="url(#paint0_linear)"/>
<path d="M15.1429 29.2923C15.1429 21.4778 21.4778 15.1429 29.2923 15.1429H94.7077C102.522 15.1429 108.857 21.4778 108.857 29.2923V54.9742V74.9613V83.1278C108.857 84.1349 108.17 85.012 107.192 85.2525C105.629 85.6368 104.843 87.3875 105.595 88.8104L106.236 90.0235C107.383 92.1942 105.809 94.8056 103.354 94.8056H20.5521C18.0444 94.8056 16.3669 92.2244 17.3853 89.9328L18.0564 88.4227C18.6232 87.1472 17.9359 85.6645 16.5962 85.2728C15.7348 85.0209 15.1429 84.2311 15.1429 83.3336V74.9613V54.9742V29.2923Z" stroke="url(#paint1_linear)" stroke-width="0.285714"/>
</mask>
<g mask="url(#mask0)">
<path fill-rule="evenodd" clip-rule="evenodd" d="M73.0106 63.7563C71.9666 63.5199 71.7936 61.5638 72.7501 61.0829C80.6924 57.09 86.1421 48.8673 86.1421 39.3716C86.1421 25.959 75.269 15.0859 61.8564 15.0859C48.4437 15.0859 37.5706 25.959 37.5706 39.3716C37.5706 48.8672 43.0202 57.0899 50.9624 61.0828C51.9189 61.5637 51.7459 63.5198 50.7019 63.7562C28.2978 68.8301 11.5703 88.8619 11.5703 112.801C11.5703 140.573 34.084 163.086 61.856 163.086C89.6281 163.086 112.142 140.573 112.142 112.801C112.142 88.862 95.4145 68.8304 73.0106 63.7563Z" fill="url(#paint2_linear)"/>
</g>
</g>
<defs>
<filter id="filter0_dd" x="0.463921" y="0.463921" width="118.711" height="104.66" filterUnits="userSpaceOnUse" color-interpolation-filters="sRGB">
<feFlood flood-opacity="0" result="BackgroundImageFix"/>
<feColorMatrix in="SourceAlpha" type="matrix" values="0 0 0 0 0 0 0 0 0 0 0 0 0 0 0 0 0 0 127 0"/>
<feOffset dx="3.39175" dy="3.39175"/>
<feGaussianBlur stdDeviation="3.39175"/>
<feColorMatrix type="matrix" values="0 0 0 0 0.565521 0 0 0 0 0.64663 0 0 0 0 0.7625 0 0 0 0.65 0"/>
<feBlend mode="normal" in2="BackgroundImageFix" result="effect1_dropShadow"/>
<feColorMatrix in="SourceAlpha" type="matrix" values="0 0 0 0 0 0 0 0 0 0 0 0 0 0 0 0 0 0 127 0"/>
<feOffset dx="-4.84536" dy="-4.84536"/>
<feGaussianBlur stdDeviation="4.84536"/>
<feColorMatrix type="matrix" values="0 0 0 0 1 0 0 0 0 1 0 0 0 0 1 0 0 0 0.8 0"/>
<feBlend mode="normal" in2="effect1_dropShadow" result="effect2_dropShadow"/>
<feBlend mode="normal" in="SourceGraphic" in2="effect2_dropShadow" result="shape"/>
</filter>
<linearGradient id="paint0_linear" x1="18.581" y1="19.9492" x2="90.8791" y2="102.513" gradientUnits="userSpaceOnUse">
<stop offset="0.0260417" stop-color="#F2F2F2"/>
<stop offset="1" stop-color="#EEEEEE"/>
</linearGradient>
<linearGradient id="paint1_linear" x1="36.4857" y1="39.7459" x2="95.097" y2="102.149" gradientUnits="userSpaceOnUse">
<stop stop-color="#FEFEFF"/>
<stop offset="1" stop-color="#C6CEDA"/>
</linearGradient>
<linearGradient id="paint2_linear" x1="15.4016" y1="24.2479" x2="139.55" y2="106.188" gradientUnits="userSpaceOnUse">
<stop offset="0.0260417" stop-color="#F5F5F5"/>
<stop offset="1" stop-color="#EDEDED"/>
</linearGradient>
</defs>
</svg>
