<svg width="14" height="13" viewBox="0 0 14 13" fill="none" xmlns="http://www.w3.org/2000/svg">
<path fill-rule="evenodd" clip-rule="evenodd" d="M9.34922 5.05335C9.34922 7.14652 7.65238 8.84336 5.55921 8.84336C3.46604 8.84336 1.7692 7.14652 1.7692 5.05335C1.7692 2.96018 3.46604 1.26334 5.55921 1.26334C7.65238 1.26334 9.34922 2.96018 9.34922 5.05335ZM8.65876 9.04478C7.80292 9.71035 6.72735 10.1067 5.55921 10.1067C2.76832 10.1067 0.505859 7.84424 0.505859 5.05335C0.505859 2.26246 2.76832 0 5.55921 0C8.3501 0 10.6126 2.26246 10.6126 5.05335C10.6126 6.22075 10.2167 7.29569 9.55191 8.15127L13.1986 11.7531C13.4468 11.9983 13.4492 12.3982 13.2041 12.6464C12.9589 12.8946 12.559 12.8971 12.3108 12.6519L8.65876 9.04478Z" fill="#959595"/>
</svg>
