<svg width="16" height="16" viewBox="0 0 16 16" fill="none" xmlns="http://www.w3.org/2000/svg">
<path fill-rule="evenodd" clip-rule="evenodd" d="M10.8803 6.05769C10.8803 8.56687 8.84616 10.601 6.33699 10.601C3.82781 10.601 1.79372 8.56687 1.79372 6.05769C1.79372 3.54851 3.82781 1.51442 6.33699 1.51442C8.84616 1.51442 10.8803 3.54851 10.8803 6.05769ZM10.0526 10.8424C9.02663 11.6402 7.73729 12.1154 6.33699 12.1154C2.99142 12.1154 0.279297 9.40326 0.279297 6.05769C0.279297 2.71212 2.99142 0 6.33699 0C9.68256 0 12.3947 2.71212 12.3947 6.05769C12.3947 7.4571 11.9201 8.74568 11.1232 9.7713L15.4947 14.0891C15.7923 14.383 15.7952 14.8624 15.5014 15.16C15.2075 15.4575 14.7281 15.4605 14.4305 15.1666L10.0526 10.8424Z" fill="#F2F6FB"/>
</svg>
